/* XPM */
static char *e6e0cfa380c04423c84294b504057e25IkS9oCK0C9x2fJJs[] = {
/* columns rows colors chars-per-pixel */
"96 32 246 2 ",
"   c None",
".  c #1B1B0C",
"X  c #0C1E1C",
"o  c #041D1B",
"O  c #1C1C15",
"+  c #141C1C",
"@  c #1B1C1C",
"#  c #161916",
"$  c #3C0E0C",
"%  c #370B09",
"&  c #25190B",
"*  c #34130C",
"=  c #3B130B",
"-  c #3A1505",
";  c #330E14",
":  c #370C1A",
">  c #2C1413",
",  c #221A14",
"<  c #241B1A",
"1  c #2B1A1A",
"2  c #251716",
"3  c #341413",
"4  c #371519",
"5  c #2E0F0A",
"6  c #02231D",
"7  c #0B221D",
"8  c #082519",
"9  c #13231D",
"0  c #192217",
"q  c #2B2117",
"w  c #0B1E24",
"e  c #061F27",
"r  c #1A1C22",
"t  c #161C27",
"y  c #091D39",
"u  c #17183A",
"i  c #160F30",
"p  c #3A0A27",
"a  c #281628",
"s  c #341226",
"d  c #340733",
"f  c #2C0E2A",
"g  c #032423",
"h  c #0C2323",
"j  c #022A24",
"k  c #0C2924",
"l  c #04252C",
"z  c #0C242A",
"x  c #012A2A",
"c  c #0C292A",
"v  c #142424",
"b  c #152527",
"n  c #062633",
"m  c #02302D",
"M  c #3D3F3A",
"N  c #37342F",
"B  c #4D0402",
"V  c #44090A",
"C  c #480A06",
"Z  c #560506",
"A  c #42120A",
"S  c #430E12",
"D  c #53041D",
"F  c #541516",
"G  c #640002",
"H  c #650705",
"J  c #7B0D0C",
"K  c #760605",
"L  c #76140C",
"P  c #681817",
"I  c #741515",
"U  c #7E061F",
"Y  c #4C0D31",
"T  c #681436",
"R  c #720C2D",
"E  c #472729",
"W  c #422A36",
"Q  c #4B352E",
"!  c #682131",
"~  c #384438",
"^  c #2A463A",
"/  c #49423B",
"(  c #091C46",
")  c #071B59",
"_  c #16174F",
"`  c #2A0554",
"'  c #390158",
"]  c #2B0F46",
"[  c #012345",
"{  c #02205F",
"}  c #313A46",
"|  c #180B6A",
" . c #021A68",
".. c #060D7A",
"X. c #061678",
"o. c #0B0C69",
"O. c #2C056E",
"+. c #002662",
"@. c #2D3E68",
"#. c #480049",
"$. c #480056",
"%. c #58005A",
"&. c #551457",
"*. c #680D51",
"=. c #512F4C",
"-. c #723253",
";. c #4C0069",
":. c #500E6B",
">. c #722E6F",
",. c #62206D",
"<. c #234B44",
"1. c #2A444D",
"2. c #274849",
"3. c #3B4647",
"4. c #2A4656",
"5. c #27504C",
"6. c #2A4362",
"7. c #1C4946",
"8. c #466868",
"9. c #486475",
"0. c #50646D",
"q. c #6C7D7D",
"w. c #6A7D77",
"e. c #727C7C",
"r. c #757977",
"t. c #604243",
"y. c #830C0B",
"u. c #8B0A09",
"i. c #9B0201",
"p. c #950504",
"a. c #811317",
"s. c #8E0912",
"d. c #A40101",
"f. c #AD0000",
"g. c #B30000",
"h. c #B90000",
"j. c #A81B1C",
"k. c #B81919",
"l. c #A60013",
"z. c #A9231E",
"x. c #B12116",
"c. c #9A1023",
"v. c #AB1A25",
"b. c #B91827",
"n. c #B5103A",
"m. c #982928",
"M. c #982834",
"N. c #893031",
"B. c #A62525",
"V. c #B12126",
"C. c #B42334",
"Z. c #CD0C0D",
"A. c #DC0C0C",
"S. c #D70B07",
"D. c #D7120D",
"F. c #D90C13",
"G. c #C71818",
"H. c #DA1115",
"J. c #C6130D",
"K. c #EC0303",
"L. c #E10B0B",
"P. c #E60707",
"I. c #F40202",
"U. c #F90202",
"Y. c #F60509",
"T. c #E31515",
"R. c #C51026",
"E. c #D20F27",
"W. c #9E195D",
"Q. c #B11757",
"!. c #872D50",
"~. c #A4214E",
"^. c #9A1A63",
"/. c #9F1C66",
"(. c #C21542",
"). c #9C775C",
"_. c #A3795C",
"`. c #977D6B",
"'. c #9A7B73",
"]. c #8D7E70",
"[. c #A4746C",
"{. c #B26F7A",
"}. c #67817B",
"|. c #79806E",
" X c #89836C",
".X c #96836C",
"XX c #898475",
"oX c #938271",
"OX c #1B038A",
"+X c #021584",
"@X c #02129A",
"#X c #080793",
"$X c #2E008A",
"%X c #1A01AC",
"&X c #0A04BA",
"*X c #0C09AB",
"=X c #2500AB",
"-X c #2303B0",
";X c #501589",
":X c #7B5992",
">X c #456485",
",X c #476D9C",
"<X c #677D84",
"1X c #767E86",
"2X c #66608C",
"3X c #2002C3",
"4X c #376AC6",
"5X c #445DDE",
"6X c #907896",
"7X c #B76E8C",
"8X c #965DA2",
"9X c #638283",
"0X c #70858D",
"qX c #B8B09E",
"wX c #B9B5A7",
"eX c #B5B2B0",
"rX c #808C88",
"tX c #CAAC97",
"yX c #D9AC9C",
"uX c #C7B49B",
"iX c #DFA98D",
"pX c #CAACA7",
"aX c #C6B2A5",
"sX c #C2B1B8",
"dX c #E0A88D",
"fX c #BEE7E1",
"gX c #D6DED8",
"hX c #D6E3DE",
"jX c #D8E4DB",
"kX c #CEE3DC",
"lX c #D9DEE3",
"zX c #CAE4E5",
"xX c #C4EAE5",
"cX c #C3EAEA",
"vX c #CAE7E9",
"bX c #D3E3E3",
"nX c #D6E7E7",
"mX c #CAE8F0",
"MX c #ECFFFF",
"NX c #FFF4F4",
"BX c #FFFBF5",
"VX c #FFF6F9",
"CX c #F3FFFF",
"ZX c #FDFDFD",
"AX c #FFF4EE",
"SX c #E8D3D0",
/* pixels */
"                    ZXMXMXMXZXZX                                                      ZXCXNXF G G Z VXZXZX                                                  CXZXVXV G G C AXVX                  ",
"                    NX5 5 ; 4 NXVXBX                                                BXBX% B m.j.j.m.B % VXBX                                            ZXNXVXV Z m.m.z.m.B VXZX                ",
"                  NXH x.G.k.k.G C VXZXZX                                            BXB x.D.S.T.T.S.D.x.B BX                                          ZXBXV G V.G.Z.T.S.Z.k.C                   ",
"                  Z k.S.P.K.S.G.m.Z % VXZX                                        NXB B.S.U.I.K.K.I.U.S.B.B VX                                      BXNXZ B.G.S.K.I.K.I.U.D.j.F                 ",
"                Z k.S.U.I.I.P.L.S.G.V.Z VXZX                                      Z V.L.K.I.Y.K.K.Y.I.K.A.k.Z                                     ZXNXZ k.A.S.K.Y.U.U.U.I.K.A.j.3               ",
"              $ v.H.K.U.U.I.U.U.I.K.H.b.V VX                                      m.D.Y.I.Y.I.Y.Y.K.Y.I.Y.Z.m.;                                   ZXV m.T.I.I.Y.U.I.U.I.I.I.Y.G.C ,             ",
"            @ V k.K.Y.U.U.U.U.U.I.K.K.D.V.B                                     % I G.S.K.Y.U.U.I.U.Y.Y.P.G.L *                                   a P z.A.U.U.I.U.U.Y.U.U.I.S.i.Z E 3           ",
"          @ N V i.A.K.I.I.U.I.I.I.K.I.L.j.I 1                                   % P p.g.F.P.L.K.K.P.P.F.g.p.P *                                   < C s.Z.P.K.K.I.I.K.K.K.A.d.y.Z E / 1         ",
"        4 =.N ; J d.S.K.I.U.I.Y.Y.P.P.J.L - 0                                     A P y.i.g.g.h.g.g.g.i.y.P A   O                                 v pXB p.g.g.F.A.A.P.S.g.d.L % O v 0           ",
"          4 1 > C L i.g.L.P.L.S.S.h.g.p.C qX0                                   aXtX= C I J y.y.y.y.J I V = tXuX  @                               9 wX- I y.u.p.d.d.d.i.s.L A aX7 6             ",
"            r @ aX= P y.i.f.g.d.p.s.J P - wXb                                   tXtX& O O , < , , , O < O & tX  .X.                               . XXq , & S P P I I P 5 > * aX  O             ",
"            9 eXwX& * - I a.J L P V A * , r.b                                 & .X.XqX0 8 6 x g 6 m 6 7 0 wX.X`..                                 BX& |.8 o b < > 3 3 a 0 0 aXtX  <             ",
"            q   uXuX& O @ < < < a t r X XXO                                     O & '.uX0 6 g j j j 8 0 pX'., O                                   BX0 rXw z e h v h b b & uXtX.X].a             ",
"            . XX.XuXwX# b r + r t t h b 0X+                                       < {.[.pX1 ; : 3 > 1 tX[.'.<                                     ZXZXu 1X< 1 5 > 2 u u uX).[.= ,               ",
"              0 . oX`.yX* = C B B $ 1 6Xz                                         5 S 7X7XM.b.G.G.b.M.7X7Xp 3                                     ZX] :X8X-.v.G.J.C.>.8X7X{.C V                 ",
"                * $ {.7X6X-.M.v.B.m.-.:X2Xu                                     C !.>.Y D ~.R.F.F.E.~.D Y !.!.C                                 ZXu ,.` #.W.E.K.K.E.%.;.#.!.M.I S               ",
"              - u.b.^.;.OXO.R.F.F.R.^.' ' >.1                                 4 C.R.^.%.$.&.R y.y.R &.$.%.^.b.b.4                             BX$ =.=.` #.R l.A.P.(.$X-X;.^.R.G.y.Z =           ",
"          3 A L F.E.W.;.3X=XQ.F.E.l.R #.#.&.-.>                               : k.E.^.$.' ] % C V % ] ' $.^.E.b.;                             BXA ! f f Y T a.i.d.W.=X3X;.Q.F.A.R.u.P 4         ",
"        * P d.J.L.E.Q.;.-X=X/.l.l.a.T : : : N ,                               4 B.v.!.d s pXyXiXdXyXpXs d !.v.z.3                             ZX& & tXpXpX% V P *.%.%X%X&.s.g.A.A.G.B.V         ",
"        A m.Z.L.H.f.c.*.=X-X;.T P B A       & 2                                 D T d f aXuX)._._.`.uXpXa f T D                               ZX+ wX.X.X XuXpX: &.$X&X%X*.K p.d.F.k.N.3 BX      ",
"        * N.G.J.s.I H *.-X&XOX&.: yXyX`. X X  ,                             7 y | | u eXqX.X.X`.`.'..XwXeXu O.| u 7                         CXb eXM ~ ^ ~ XXoXsX_ ..&X=X*.R H G I P i n MX      ",
"        r s R U D D T :.%X&X.._ sX]..X/ N ~ ~   t                         6 8.>X....@.3.~ ~ / ~ M / N ~ 3.@.....>X8.7                     v g g # 9 c o 7 3.Q } 6.X.@XOX' &.&.W d ] ,X[ n h w CX",
"  z n n [ ,X_ ] &.:.;XOX&X@X) 4.^ ~ ^ 8 g z b w b w X                 h g c j l )  .u w 7 8 6 g 6 7 k 7 h y  . .n j c h w               h 8.8.8.h vXzXnXvXz w b n [  ...| | o.X.@X5X4X+.>X0.1.t ",
"h 4.8.>X+.4X4XX.| ` O.#X#XX.( j h j j xXmXzXvXz 8.8.8.k             w 8.9.8.8.8.( ( n mXzXzXvXcXxXxXzXzXvXn ( n 8.8.8.9.8.w             h 1.7.7.cXh <X<X<XzXmXvXcXz 6.) +.X. .+X@X@XX.{ @.<X3.w ",
"x 2.9X6.X.+X@X+X( u y _ ( @.n zXbXzXhX}.w.}.6 cX<.<.5.8             c 2.1.1.5.7.l 0XcXx q.q.q.q.q.w.}.}.e mX0Xe 7.5.1.1.2.k             h j x j fXk bXbXnX<X}.}.g xXn >X>X>X>X@. . ._ ( e q.xXh ",
"g vX9Xy _ ..+XX.4.0.8.8.8.l mXh q.e.w.jXjXkXk cXj j 6 6             g g n c g j t zXfXl zXhXhXlXlXhXjXhXx zXmXb 6 j n n j g             v l x g nX# r.e.e.bXbXbX8 vXg 4.4.1.4.<X6.( i } h 2.}.g ",
"x w.2.v N d u 6.<X2.^ <.5.g   z zXlXlXr.r.}.g xXl x m c             j g j g 6 9 1 VXnXg e.r.r.r.r.r.r.e.e mXVX< 9 6 g x j 8             w z l b SX* BXw.e.e.e.w.j xXj 6 x n n 1.1.t N   h j 2.c ",
"h } h 9   Q X 2.1.g j j 6 x   w   q.1Xe.0X  +   h l g c             6 j x j j X 3 t.lX9 ZXe.e.q.e.e.e.ZXt lXt.> 8 j j x j 6             CXw z r E E gXgXnXq.e.  h zXk j j g l   2.b   2 b e z   ",
"  b v X O   k 2.  k j j g 6   r   q.<X      E W w h b               c x m l x h 1 E E W bXzXnXzXzXzXzXlXW E E 1 7 j x l x c                 CXZXZX@ b 9 X zXbXbXhXN 6 x j x j 9X<.v r           ",
"          k e 1.9Xj j x j k N         z b b :                         z l l e v ZX4 : ; @ c 6 g k 6 b @ 3 4 ;   b e n l z                                 v h r 2   h j g j 6 g k               ",
"              h z l n l 6 k   b X 9 7                                                                                                                                 b X k c h                 ",
"                z n l m 6                                                                                                                                                                       "
};
